<svg height="860.00001pt" viewBox="-27 -27 860.00001 860.00001" width="860.00001pt" xmlns="http://www.w3.org/2000/svg"><path d="m362.890625 537.582031c-2.953125 0-5.925781-.96875-8.386719-2.9375l-134.375-107.5c-5.796875-4.648437-6.738281-13.097656-2.097656-18.898437 4.640625-5.773438 13.101562-6.730469 18.882812-2.097656l124.984376 99.996093 233.371093-233.375c5.25-5.25 13.753907-5.25 19.003907 0s5.25 13.753907 0 19.003907l-241.875 241.875c-2.609376 2.613281-6.050782 3.933593-9.507813 3.933593zm0 0"/><path d="m403.207031 806.332031c-222.285156 0-403.1249998-180.839843-403.1249998-403.125 0-222.285156 180.8398438-403.1249998 403.1249998-403.1249998 222.285157 0 403.125 180.8398438 403.125 403.1249998 0 222.285157-180.839843 403.125-403.125 403.125zm0-779.375c-207.464843 0-376.25 168.785157-376.25 376.25 0 207.46875 168.785157 376.25 376.25 376.25 207.46875 0 376.25-168.78125 376.25-376.25 0-207.464843-168.78125-376.25-376.25-376.25zm0 0"/></svg>